<?xml version="1.0" encoding="utf-8"?><!--Generator: Adobe Illustrator 24.0.1, SVG Export Plug-In . SVG Version: 6.00 Build 0)--><svg version="1.1" id="圖層_1" xmlns="http://www.w3.org/2000/svg" xmlns:xlink="http://www.w3.org/1999/xlink" x="0px" y="0px" viewBox="0 0 100 100" enable-background="new 0 0 100 100" xml:space="preserve"><path fill="#FCB711" stroke="#000000" stroke-width="3.5" stroke-miterlimit="10" d="M50,19.83c-16.66,0-30.17,13.51-30.17,30.17 S33.34,80.17,50,80.17S80.17,66.66,80.17,50S66.66,19.83,50,19.83z M50,71.12c-11.66,0-21.12-9.45-21.12-21.12S38.34,28.88,50,28.88 S71.12,38.34,71.12,50S61.66,71.12,50,71.12z"/><g><polygon fill="#A0C8D7" stroke="#000000" stroke-width="3.5" stroke-linecap="round" stroke-linejoin="round" stroke-miterlimit="10" points=" 56.01,19.72 43.99,19.72 37.14,11.94 40.6,5.17 59.4,5.17 62.86,11.94 	"/><line fill="none" stroke="#000000" stroke-width="3.5" stroke-linecap="round" stroke-linejoin="round" stroke-miterlimit="10" x1="37.14" y1="11.94" x2="45.9" y2="11.94"/><line fill="none" stroke="#000000" stroke-width="3.5" stroke-linecap="round" stroke-linejoin="round" stroke-miterlimit="10" x1="62.86" y1="11.94" x2="54.1" y2="11.94"/></g><metadata xmlns:d="https://loading.io/stock/">
<d:name>wedding</d:name>
<d:tags>wedding,ring,diamond,jewels,gem,gold</d:tags>
<d:license>by</d:license>
<d:slug>2d9hea</d:slug>
</metadata></svg>